HIERARCHY
ROOT hip
{
  OFFSET 0 0 0
  CHANNELS 6 Xposition Yposition Zposition Zrotation Yrotation Xrotation
  JOINT abdomen
  {
    OFFSET 0 20.6881 -0.73152
    CHANNELS 3 Zrotation Xrotation Yrotation
    JOINT chest
    {
      OFFSET 0 11.7043 -0.48768
      CHANNELS 3 Zrotation Xrotation Yrotation
      JOINT neck
      {
        OFFSET 0 22.1894 -2.19456
        CHANNELS 3 Zrotation Xrotation Yrotation
        JOINT head
        {
          OFFSET -0.24384 7.07133 1.2192
          CHANNELS 3 Zrotation Xrotation Yrotation
          JOINT leftEye
          {
            OFFSET 4.14528 8.04674 8.04672
            CHANNELS 3 Zrotation Xrotation Yrotation
            End Site
            {
              OFFSET 1 0 0
            }
          }
          JOINT rightEye
          {
            OFFSET -3.6576 8.04674 8.04672
            CHANNELS 3 Zrotation Xrotation Yrotation
            End Site
            {
              OFFSET 1 0 0
            }
          }
        }
      }
      JOINT rCollar
      {
        OFFSET -2.68224 19.2634 -4.8768
        CHANNELS 3 Zrotation Xrotation Yrotation
        JOINT rShldr
        {
          OFFSET -8.77824 -1.95073 1.46304
          CHANNELS 3 Zrotation Xrotation Yrotation
          JOINT rForeArm
          {
            OFFSET -28.1742 -1.7115 0.48768
            CHANNELS 3 Zrotation Xrotation Yrotation
            JOINT rHand
            {
              OFFSET -22.5879 0.773209 7.07136
              CHANNELS 3 Zrotation Xrotation Yrotation
              JOINT rThumb1
              {
                OFFSET -1.2192 -0.487915 3.41376
                CHANNELS 3 Zrotation Xrotation Yrotation
                JOINT rThumb2
                {
                  OFFSET -3.37035 -0.52449 3.41376
                  CHANNELS 3 Zrotation Xrotation Yrotation
                  End Site
                  {
                    OFFSET -1.78271 -1.18214 1.43049
                  }
                }
              }
              JOINT rIndex1
              {
                OFFSET -7.75947 0.938293 5.60832
                CHANNELS 3 Zrotation Xrotation Yrotation
                JOINT rIndex2
                {
                  OFFSET -2.54057 -0.884171 1.56538
                  CHANNELS 3 Zrotation Xrotation Yrotation
                  End Site
                  {
                    OFFSET -1.62519 -0.234802 1.16502
                  }
                }
              }
              JOINT rMid1
              {
                OFFSET -8.24714 1.18213 3.41376
                CHANNELS 3 Zrotation Xrotation Yrotation
                JOINT rMid2
                {
                  OFFSET -3.10165 -0.590103 1.0647
                  CHANNELS 3 Zrotation Xrotation Yrotation
                  End Site
                  {
                    OFFSET -2.48547 -0.328903 0.83742
                  }
                }
              }
              JOINT rRing1
              {
                OFFSET -8.82822 0.546677 1.51678
                CHANNELS 3 Zrotation Xrotation Yrotation
                JOINT rRing2
                {
                  OFFSET -2.60934 -0.819778 -0.0198488
                  CHANNELS 3 Zrotation Xrotation Yrotation
                  End Site
                  {
                    OFFSET -2.33842 -0.294052 0.168128
                  }
                }
              }
              JOINT rPinky1
              {
                OFFSET -8.27202 -0.0477905 -0.4584
                CHANNELS 3 Zrotation Xrotation Yrotation
                JOINT rPinky2
                {
                  OFFSET -1.82734 -0.647385 -0.700984
                  CHANNELS 3 Zrotation Xrotation Yrotation
                  End Site
                  {
                    OFFSET -1.69225 -0.51767 -0.607171
                  }
                }
              }
            }
          }
        }
      }
      JOINT lCollar
      {
        OFFSET 2.68224 19.2634 -4.8768
        CHANNELS 3 Zrotation Xrotation Yrotation
        JOINT lShldr
        {
          OFFSET 8.77824 -1.95073 1.46304
          CHANNELS 3 Zrotation Xrotation Yrotation
          JOINT lForeArm
          {
            OFFSET 28.1742 -1.7115 0.48768
            CHANNELS 3 Zrotation Xrotation Yrotation
            JOINT lHand
            {
              OFFSET 22.5879 0.773209 7.07136
              CHANNELS 3 Zrotation Xrotation Yrotation
              JOINT lThumb1
              {
                OFFSET 1.2192 -0.487915 3.41376
                CHANNELS 3 Zrotation Xrotation Yrotation
                JOINT lThumb2
                {
                  OFFSET 3.37035 -0.52449 3.41376
                  CHANNELS 3 Zrotation Xrotation Yrotation
                  End Site
                  {
                    OFFSET 1.78271 -1.18214 1.43049
                  }
                }
              }
              JOINT lIndex1
              {
                OFFSET 7.75947 0.938293 5.60832
                CHANNELS 3 Zrotation Xrotation Yrotation
                JOINT lIndex2
                {
                  OFFSET 2.54057 -0.884171 1.56538
                  CHANNELS 3 Zrotation Xrotation Yrotation
                  End Site
                  {
                    OFFSET 1.62519 -0.234802 1.16502
                  }
                }
              }
              JOINT lMid1
              {
                OFFSET 8.24714 1.18213 3.41376
                CHANNELS 3 Zrotation Xrotation Yrotation
                JOINT lMid2
                {
                  OFFSET 3.10165 -0.590103 1.0647
                  CHANNELS 3 Zrotation Xrotation Yrotation
                  End Site
                  {
                    OFFSET 2.48547 -0.328903 0.83742
                  }
                }
              }
              JOINT lRing1
              {
                OFFSET 8.82822 0.546677 1.51678
                CHANNELS 3 Zrotation Xrotation Yrotation
                JOINT lRing2
                {
                  OFFSET 2.60934 -0.819778 -0.0198488
                  CHANNELS 3 Zrotation Xrotation Yrotation
                  End Site
                  {
                    OFFSET 2.33842 -0.294052 0.168128
                  }
                }
              }
              JOINT lPinky1
              {
                OFFSET 8.27202 -0.0477905 -0.4584
                CHANNELS 3 Zrotation Xrotation Yrotation
                JOINT lPinky2
                {
                  OFFSET 1.82734 -0.647385 -0.700984
                  CHANNELS 3 Zrotation Xrotation Yrotation
                  End Site
                  {
                    OFFSET 1.69225 -0.51767 -0.607171
                  }
                }
              }
            }
          }
        }
      }
    }
  }
  JOINT rButtock
  {
    OFFSET -8.77824 4.35084 1.2192
    CHANNELS 3 Zrotation Xrotation Yrotation
    JOINT rThigh
    {
      OFFSET 0 -1.70687 -2.19456
      CHANNELS 3 Zrotation Xrotation Yrotation
      JOINT rShin
      {
        OFFSET 0 -36.8199 0.73152
        CHANNELS 3 Zrotation Xrotation Yrotation
        JOINT rFoot
        {
          OFFSET 0.73152 -45.1104 -5.12064
          CHANNELS 3 Zrotation Xrotation Yrotation
          End Site
          {
            OFFSET -1.1221 -3.69964 12.103
          }
        }
      }
    }
  }
  JOINT lButtock
  {
    OFFSET 8.77824 4.35084 1.2192
    CHANNELS 3 Zrotation Xrotation Yrotation
    JOINT lThigh
    {
      OFFSET 0 -1.70687 -2.19456
      CHANNELS 3 Zrotation Xrotation Yrotation
      JOINT lShin
      {
        OFFSET 0 -36.8199 0.73152
        CHANNELS 3 Zrotation Xrotation Yrotation
        JOINT lFoot
        {
          OFFSET -0.73152 -45.1104 -5.12064
          CHANNELS 3 Zrotation Xrotation Yrotation
          End Site
          {
            OFFSET 1.1221 -3.69964 12.103
          }
        }
      }
    }
  }
}
MOTION
Frames:	5
Frame Time:	0.03333
0.26839999482035637 64.58219885826111 -0.03600000054575503 178.907958984375 42.04019546508789 178.74810791015625 -4.300843715667725 14.633305549621582 -0.3521866202354431 5.3078694343566895 -10.768799781799316 0.31351324915885925 -6.7765374183654785 19.471302032470703 -16.167095184326172 12.140005111694336 -27.48050308227539 -29.005298614501953 -0.0 0.0 -0.0 -0.0 0.0 -0.0 -0.0 0.0 -0.0 55.26519775390625 -6.101223468780518 28.00420379638672 -28.080299377441406 -31.11320686340332 69.02869415283203 -1.7340811491012573 34.59950256347656 5.56362771987915 -0.0 0.0 -0.0 -0.0 0.0 -0.0 -0.0 0.0 -0.0 7.730876445770264 5.474895000457764 0.41732463240623474 -0.0 0.0 -0.0 2.9054994583129883 0.9650753736495972 0.10300876200199127 -0.0 0.0 -0.0 10.278595924377441 0.7317469120025635 0.026285577565431595 -0.0 0.0 -0.0 2.221662759780884 -0.7335850596427917 -0.20831839740276337 -0.0 0.0 -0.0 -68.68309020996094 81.15101623535156 -4.103340148925781 27.462299346923828 -42.63420486450195 -88.78689575195312 58.247467041015625 -81.2652359008789 66.00975799560547 -0.0 0.0 -0.0 -0.0 0.0 -0.0 -0.0 0.0 -0.0 -7.730876445770264 5.474895000457764 -0.41732463240623474 -0.0 0.0 -0.0 -2.9054994583129883 0.9650753736495972 -0.10300876200199127 -0.0 0.0 -0.0 -10.278595924377441 0.7317469120025635 -0.026285577565431595 -0.0 0.0 -0.0 -2.221662759780884 -0.7335850596427917 0.20831839740276337 -0.0 0.0 -0.0 -57.234493255615234 -45.37809753417969 -56.59309768676758 -1.2555155754089355 61.998600006103516 1.4966230392456055 1.7265979051589966 0.20354419946670532 17.570175170898438 -0.0 0.0 -0.0 21.61539077758789 -32.95409393310547 33.65689468383789 4.995706558227539 81.4494857788086 -6.896059036254883 19.25419807434082 -27.576602935791016 29.189105987548828
0.5081000039353967 64.36600089073181 -0.07400000176858157 178.52110290527344 42.13798904418945 178.53489685058594 -4.628893852233887 14.55850601196289 -0.5549066662788391 5.4274067878723145 -10.720866203308105 0.2533552050590515 -7.140239238739014 19.545400619506836 -16.018692016601562 12.302899360656738 -27.44369888305664 -28.70549774169922 -0.0 0.0 -0.0 -0.0 0.0 -0.0 -0.0 0.0 -0.0 55.13990020751953 -6.190267086029053 28.273799896240234 -28.038711547851562 -30.84699058532715 68.60179138183594 -1.7233638763427734 34.50880432128906 5.544719696044922 -0.0 0.0 -0.0 -0.0 0.0 -0.0 -0.0 0.0 -0.0 7.730876445770264 5.474895000457764 0.41732463240623474 -0.0 0.0 -0.0 2.9054994583129883 0.9650753736495972 0.10300876200199127 -0.0 0.0 -0.0 10.278595924377441 0.7317469120025635 0.026285577565431595 -0.0 0.0 -0.0 2.221662759780884 -0.7335850596427917 -0.20831839740276337 -0.0 0.0 -0.0 -71.5407943725586 80.5610122680664 -1.422451376914978 27.47150421142578 -42.602500915527344 -88.72738647460938 63.365028381347656 -81.56654357910156 71.18616485595703 -0.0 0.0 -0.0 -0.0 0.0 -0.0 -0.0 0.0 -0.0 -7.730876445770264 5.474895000457764 -0.41732463240623474 -0.0 0.0 -0.0 -2.9054994583129883 0.9650753736495972 -0.10300876200199127 -0.0 0.0 -0.0 -10.278595924377441 0.7317469120025635 -0.026285577565431595 -0.0 0.0 -0.0 -2.221662759780884 -0.7335850596427917 0.20831839740276337 -0.0 0.0 -0.0 -58.1404914855957 -45.53840255737305 -57.2825927734375 -1.3175705671310425 62.77189254760742 1.5539515018463135 2.021258592605591 -0.5444088578224182 17.82469940185547 -0.0 0.0 -0.0 21.454702377319336 -32.88139724731445 33.68349838256836 5.126039505004883 81.6595230102539 -7.054172039031982 19.47909164428711 -27.656394958496094 29.453697204589844
0.735500012524426 64.17949795722961 -0.09700000227894634 178.09902954101562 42.271793365478516 178.33502197265625 -4.835079669952393 14.445901870727539 -0.846980094909668 5.602053165435791 -10.660908699035645 0.17684808373451233 -7.619040489196777 19.595693588256836 -15.817405700683594 12.468701362609863 -27.390695571899414 -28.30970001220703 -0.0 0.0 -0.0 -0.0 0.0 -0.0 -0.0 0.0 -0.0 54.82249450683594 -6.156132221221924 28.569992065429688 -27.99470329284668 -30.580904006958008 68.17659759521484 -1.7257155179977417 34.52880096435547 5.548862934112549 -0.0 0.0 -0.0 -0.0 0.0 -0.0 -0.0 0.0 -0.0 7.730876445770264 5.474895000457764 0.41732463240623474 -0.0 0.0 -0.0 2.9054994583129883 0.9650753736495972 0.10300876200199127 -0.0 0.0 -0.0 10.278595924377441 0.7317469120025635 0.026285577565431595 -0.0 0.0 -0.0 2.221662759780884 -0.7335850596427917 -0.20831839740276337 -0.0 0.0 -0.0 -74.54464721679688 79.86312866210938 1.4273035526275635 27.46579360961914 -42.62261199951172 -88.764892578125 67.9925765991211 -81.75311279296875 75.85208129882812 -0.0 0.0 -0.0 -0.0 0.0 -0.0 -0.0 0.0 -0.0 -7.730876445770264 5.474895000457764 -0.41732463240623474 -0.0 0.0 -0.0 -2.9054994583129883 0.9650753736495972 -0.10300876200199127 -0.0 0.0 -0.0 -10.278595924377441 0.7317469120025635 -0.026285577565431595 -0.0 0.0 -0.0 -2.221662759780884 -0.7335850596427917 0.20831839740276337 -0.0 0.0 -0.0 -59.035091400146484 -45.67409896850586 -58.03308868408203 -1.3809270858764648 63.53159713745117 1.6134793758392334 2.2810163497924805 -1.1619831323623657 18.076702117919922 -0.0 0.0 -0.0 21.26460838317871 -32.88710021972656 33.591304779052734 5.277087688446045 81.89045715332031 -7.235395908355713 19.75388526916504 -27.684301376342773 29.813398361206055
0.9802000131458044 63.95689845085144 -0.07800000166753307 177.96995544433594 42.3577880859375 178.40701293945312 -4.715985298156738 14.301305770874023 -0.7621450424194336 5.505123138427734 -10.6716947555542 0.19848519563674927 -7.719238758087158 19.572389602661133 -15.809097290039062 12.370400428771973 -27.293500900268555 -28.326595306396484 -0.0 0.0 -0.0 -0.0 0.0 -0.0 -0.0 0.0 -0.0 54.45689392089844 -6.49264669418335 28.520200729370117 -27.95039176940918 -30.32421112060547 67.76600646972656 -1.7473441362380981 34.848106384277344 5.610310077667236 -0.0 0.0 -0.0 -0.0 0.0 -0.0 -0.0 0.0 -0.0 7.730876445770264 5.474895000457764 0.41732463240623474 -0.0 0.0 -0.0 2.9054994583129883 0.9650753736495972 0.10300876200199127 -0.0 0.0 -0.0 10.278595924377441 0.7317469120025635 0.026285577565431595 -0.0 0.0 -0.0 2.221662759780884 -0.7335850596427917 -0.20831839740276337 -0.0 0.0 -0.0 -75.8949966430664 79.70401763916016 2.8135554790496826 27.461700439453125 -42.63618087768555 -88.7908935546875 67.7317886352539 -81.72891235351562 75.57421112060547 -0.0 0.0 -0.0 -0.0 0.0 -0.0 -0.0 0.0 -0.0 -7.730876445770264 5.474895000457764 -0.41732463240623474 -0.0 0.0 -0.0 -2.9054994583129883 0.9650753736495972 -0.10300876200199127 -0.0 0.0 -0.0 -10.278595924377441 0.7317469120025635 -0.026285577565431595 -0.0 0.0 -0.0 -2.221662759780884 -0.7335850596427917 0.20831839740276337 -0.0 0.0 -0.0 -59.67259979248047 -45.897499084472656 -58.7615966796875 -1.4468029737472534 64.2593994140625 1.6751385927200317 2.4575579166412354 -1.5180364847183228 18.30629539489746 -0.0 0.0 -0.0 21.423398971557617 -33.05110549926758 33.535099029541016 5.518435001373291 82.21602630615234 -7.5029706954956055 19.99720001220703 -27.68379783630371 30.133798599243164
1.196400006301701 63.74019980430603 -0.13900000049034134 178.15310668945312 42.48041534423828 178.61293029785156 -4.558887004852295 14.176309585571289 -0.6049939393997192 5.384720802307129 -10.692180633544922 0.24113543331623077 -7.723338603973389 19.54390525817871 -15.834997177124023 12.238381385803223 -27.239301681518555 -28.410205841064453 -0.0 0.0 -0.0 -0.0 0.0 -0.0 -0.0 0.0 -0.0 54.05449295043945 -6.864838123321533 28.425399780273438 -27.90618896484375 -30.08001136779785 67.37641906738281 -1.7849452495574951 35.15982437133789 5.675897121429443 -0.0 0.0 -0.0 -0.0 0.0 -0.0 -0.0 0.0 -0.0 7.730876445770264 5.474895000457764 0.41732463240623474 -0.0 0.0 -0.0 2.9054994583129883 0.9650753736495972 0.10300876200199127 -0.0 0.0 -0.0 10.278595924377441 0.7317469120025635 0.026285577565431595 -0.0 0.0 -0.0 2.221662759780884 -0.7335850596427917 -0.20831839740276337 -0.0 0.0 -0.0 -77.07335662841797 79.62348175048828 4.0804314613342285 27.45220184326172 -42.66790008544922 -88.8511962890625 66.07232666015625 -81.67842102050781 73.91155242919922 -0.0 0.0 -0.0 -0.0 0.0 -0.0 -0.0 0.0 -0.0 -7.730876445770264 5.474895000457764 -0.41732463240623474 -0.0 0.0 -0.0 -2.9054994583129883 0.9650753736495972 -0.10300876200199127 -0.0 0.0 -0.0 -10.278595924377441 0.7317469120025635 -0.026285577565431595 -0.0 0.0 -0.0 -2.221662759780884 -0.7335850596427917 0.20831839740276337 -0.0 0.0 -0.0 -60.25449752807617 -46.10139465332031 -59.48729705810547 -1.5126146078109741 64.9522933959961 1.7366690635681152 2.614424228668213 -1.804236650466919 18.53910255432129 -0.0 0.0 -0.0 21.634902954101562 -33.20759963989258 33.48109817504883 5.790888786315918 82.55027770996094 -7.80135440826416 20.238208770751953 -27.690597534179688 30.443099975585938
